<svg width="512" height="512" xmlns="http://www.w3.org/2000/svg">
 <!--! Font Awesome Pro 6.1.1 by @fontawesome - https://fontawesome.com License - https://fontawesome.com/license (Commercial License) Copyright 2022 Fonticons, Inc. -->

 <g>
  <title>Layer 1</title>
  <path id="svg_1" d="m188.3,147.1c7.5,-4.3 16.8,-5 24.2,0.4l144,88c7.1,4.4 11.5,12.1 11.5,20.5c0,8.4 -4.4,16.1 -11.5,20.5l-144,88c-7.4,4.5 -16.7,4.7 -24.2,0.4c-7.6,-4.2 -12.3,-12.2 -12.3,-20.9l0,-176.9c0,-7.8 4.7,-15.8 12.3,-20l0,0zm323.7,108.9c0,141.4 -114.6,256 -256,256c-141.4,0 -256,-114.6 -256,-256c0,-141.4 114.6,-256 256,-256c141.4,0 256,114.6 256,256zm-256,-208c-114.9,0 -208,93.1 -208,208c0,114.9 93.1,208 208,208c114.9,0 208,-93.1 208,-208c0,-114.9 -93.1,-208 -208,-208z"/>
 </g>
</svg>